<?xml version="1.0" standalone="no"?><!DOCTYPE svg PUBLIC "-//W3C//DTD SVG 1.1//EN" "http://www.w3.org/Graphics/SVG/1.1/DTD/svg11.dtd"><svg t="1658460793242" class="icon" viewBox="0 0 1394 1024" version="1.1" xmlns="http://www.w3.org/2000/svg" p-id="4583" xmlns:xlink="http://www.w3.org/1999/xlink" width="272.265625" height="200"><defs><style type="text/css">@font-face { font-family: feedback-iconfont; src: url("//at.alicdn.com/t/font_1031158_u69w8yhxdu.woff2?t=1630033759944") format("woff2"), url("//at.alicdn.com/t/font_1031158_u69w8yhxdu.woff?t=1630033759944") format("woff"), url("//at.alicdn.com/t/font_1031158_u69w8yhxdu.ttf?t=1630033759944") format("truetype"); }
</style></defs><path d="M0 796.16s627.136-123.776 1002.624 215.68l191.744 7.936c0 0.064-431.36-459.264-1194.368-223.616M1227.328 811.456v-35.008h84.16l-74.048-79.744h53.696l-66.688-79.808h40.576l-56.512-70.976-20.288 29.504-165.504-178.816h121.344l-165.632-200.704h104.96L938.752 0l-137.728 193.6h93.44L740.48 396.608h116.672l-145.92 139.84-43.072-46.528h86.272L647.168 361.6h65.28L621.44 247.232l-81.6 119.04h62.976L495.488 494.592h81.728L451.2 625.152l160.896-4.608v32.704c-113.984 1.792-240.768 18.112-380.352 55.04 0 0 643.136-103.744 990.592 239.744l171.84-4.032c-0.128 0-55.296-64.448-166.848-132.544m-24.64-14.784a1021.632 1021.632 0 0 0-32.768-17.856l32.768-0.96v18.816z m-40.64-183.232l-4.352 6.464h39.232l-66.816 79.68h50.816l-55.232 57.408a1061.44 1061.44 0 0 0-137.984-52.864V613.44h174.336z m-374.912 4.672l-2.176-2.304h121.216l6.912 67.648 0.448 0.832a1220.736 1220.736 0 0 0-261.696-31.168v-35.008h135.296z" p-id="4584"></path></svg>